# xmcd
#
# Track frame offsets:
#	150
#	24918
#	43069
#	61218
#	79866
#	99751
#	119721
#	135471
#	151574
#	165886
#	185671
#	201773
#	217563
#	237422
#	255138
#	273616
#	292550
#	308971
#	328396
#
# Disc length: 4626 seconds
#
# Revision: 6
# Processed by: cddbd v1.5.2PL0 Copyright (c) Steve Scherf et al.
# Submitted via: EasyCDDAExtractor 15.3.0.1
#
DISCID=f4121013
DTITLE=Enrique Iglesias - 95/08 (Deluxe Edition)
DYEAR=2008
DGENRE=Latin
TTITLE0=Experiencia Religiosa
TTITLE1=Si Tu Te Vas
TTITLE2=Por Amarte
TTITLE3=No Llores Por Mi
TTITLE4=Trapecista
TTITLE5=Enamorado Por Primera Vez
TTITLE6=Solo En Ti
TTITLE7=Miente
TTITLE8=Esperanza
TTITLE9=Nunca Te Olvidare
TTITLE10=Bailamos
TTITLE11=Ritmo Total
TTITLE12=Heroe
TTITLE13=Mentiroso
TTITLE14=Para Que La Vida
TTITLE15=Quizas
TTITLE16=Dimelo
TTITLE17=Donde Estan Corazon (Tema Inedito)
TTITLE18=Lloro Por Ti (Tema Inedito)
EXTD=YEAR: 2008
EXTT0=
EXTT1=
EXTT2=
EXTT3=
EXTT4=
EXTT5=
EXTT6=
EXTT7=
EXTT8=
EXTT9=
EXTT10=
EXTT11=
EXTT12=
EXTT13=
EXTT14=
EXTT15=
EXTT16=
EXTT17=
EXTT18=
PLAYORDER=
